<?xml version="1.0" standalone="no"?>
<!DOCTYPE svg PUBLIC "-//W3C//DTD SVG 20010904//EN"
 "http://www.w3.org/TR/2001/REC-SVG-20010904/DTD/svg10.dtd">
<svg version="1.0" xmlns="http://www.w3.org/2000/svg"
 width="281.000000pt" height="418.000000pt" viewBox="0 0 281.000000 418.000000"
 preserveAspectRatio="xMidYMid meet">

<g transform="translate(0.000000,418.000000) scale(0.100000,-0.100000)"
fill="#000000" stroke="none">
<path d="M1420 4174 c-77 -15 -184 -61 -244 -106 -197 -148 -285 -383 -227
-610 27 -104 70 -185 136 -257 121 -130 245 -184 425 -185 123 -1 184 15 278
71 124 73 230 202 272 329 20 58 22 82 18 203 l-3 138 -44 89 c-73 148 -208
263 -359 308 -55 16 -208 28 -252 20z"/>
<path d="M1035 2820 c-163 -10 -253 -43 -387 -142 -112 -83 -207 -220 -239
-348 -11 -44 -14 -167 -14 -590 0 -597 -4 -564 72 -657 28 -34 58 -56 110 -80
83 -38 103 -61 103 -118 0 -75 -3 -76 -214 -85 -173 -8 -191 -10 -241 -35 -72
-35 -161 -124 -194 -194 -26 -56 -26 -57 -24 -290 2 -226 3 -235 24 -257 l22
-24 462 0 c371 0 465 3 480 13 30 23 34 150 35 1178 l0 966 25 27 c31 34 74
34 114 0 l31 -26 0 -1059 0 -1059 27 -17 c25 -17 63 -18 503 -17 532 1 523 0
674 75 101 51 156 90 204 148 142 170 193 310 193 526 0 145 -10 193 -61 303
-71 150 -142 228 -324 354 -6 4 11 30 40 60 107 114 186 249 215 368 20 83 18
310 -4 390 -69 253 -300 491 -547 564 -101 30 -758 45 -1085 26z m936 -600
c55 -15 114 -63 137 -112 46 -94 47 -251 1 -344 -45 -93 -123 -117 -379 -112
-153 3 -155 3 -167 28 -17 33 -18 462 -2 509 6 18 21 37 33 42 26 11 327 3
377 -11z m133 -1109 c51 -25 91 -67 117 -126 15 -32 19 -66 19 -168 0 -116 -2
-133 -25 -180 -31 -67 -77 -114 -123 -127 -57 -17 -264 -32 -389 -28 -92 2
-116 6 -130 21 -16 16 -18 45 -21 294 -3 285 1 326 36 337 10 3 119 4 244 2
209 -3 229 -5 272 -25z"/>
</g>
</svg>
