<?xml version="1.0" encoding="utf-8"?>
<svg xmlns="http://www.w3.org/2000/svg" viewBox="0 0 500 500" xmlns:bx="https://boxy-svg.com" width="500px" height="500px"><defs><bx:export><bx:file format="svg" path="DIAMOND.svg"/></bx:export></defs><path d="M 239.653 17.016 C 246.55 13.033 253.45 13.033 260.348 17.016 L 446.597 124.546 C 453.495 128.531 456.944 134.504 456.944 142.47 L 456.944 357.531 C 456.944 365.498 453.495 371.472 446.597 375.454 L 260.348 482.985 C 253.45 486.967 246.55 486.967 239.653 482.985 L 53.403 375.454 C 46.506 371.472 43.056 365.498 43.056 357.531 L 43.056 142.47 C 43.056 134.504 46.506 128.531 53.403 124.546 L 239.653 17.016 Z M 90.576 148.268 C 84.983 151.497 82.186 156.341 82.186 162.801 L 82.186 337.2 C 82.186 343.659 84.983 348.504 90.576 351.732 L 241.609 438.932 C 247.204 442.16 252.797 442.16 258.392 438.932 L 409.425 351.732 C 415.018 348.504 417.815 343.659 417.815 337.2 L 417.815 162.801 C 417.815 156.341 415.018 151.497 409.425 148.268 L 258.392 61.069 C 252.797 57.84 247.204 57.84 241.609 61.069 L 90.576 148.268 Z" style="stroke-width: 5px; fill: rgb(185, 155, 251); stroke: rgb(119, 100, 159);"/><path d="M 245.032 111.533 C 248.344 110.161 251.656 110.161 254.968 111.533 L 344.398 148.576 C 347.71 149.948 350.052 152.29 351.424 155.602 L 388.467 245.032 C 389.839 248.344 389.839 251.656 388.467 254.968 L 351.424 344.398 C 350.052 347.71 347.71 350.052 344.398 351.424 L 254.968 388.467 C 251.656 389.839 248.344 389.839 245.032 388.467 L 155.602 351.424 C 152.29 350.052 149.948 347.71 148.576 344.398 L 111.533 254.968 C 110.161 251.656 110.161 248.344 111.533 245.032 L 148.576 155.602 C 149.948 152.29 152.29 149.948 155.602 148.576 Z M 173.811 168.14 C 171.138 169.247 169.247 171.138 168.14 173.811 L 138.243 245.99 C 137.136 248.663 137.136 251.337 138.243 254.01 L 168.14 326.189 C 169.247 328.862 171.138 330.753 173.811 331.86 L 245.99 361.757 C 248.663 362.864 251.337 362.864 254.01 361.757 L 326.189 331.86 C 328.862 330.753 330.753 328.862 331.86 326.189 L 361.757 254.01 C 362.864 251.337 362.864 248.663 361.757 245.99 L 331.86 173.811 C 330.753 171.138 328.862 169.247 326.189 168.14 L 254.01 138.243 C 251.337 137.136 248.663 137.136 245.99 138.243 Z" style="stroke: rgb(119, 100, 159); stroke-width: 5px; fill: rgb(185, 155, 251);"/><ellipse style="fill: rgb(185, 155, 251); stroke: rgb(119, 100, 159); stroke-width: 5px;" cx="250" cy="250" rx="83.417" ry="83.417"/></svg>