<?xml version="1.0" encoding="utf-8"?>
<svg xmlns="http://www.w3.org/2000/svg" viewBox="0 0 500 500" xmlns:bx="https://boxy-svg.com" width="500px" height="500px"><defs><bx:export><bx:file format="svg" path="PLATINUM.svg"/></bx:export></defs><path d="M 239.653 17.016 C 246.55 13.033 253.45 13.033 260.348 17.016 L 446.597 124.546 C 453.495 128.531 456.944 134.504 456.944 142.47 L 456.944 357.531 C 456.944 365.498 453.495 371.472 446.597 375.454 L 260.348 482.985 C 253.45 486.967 246.55 486.967 239.653 482.985 L 53.403 375.454 C 46.506 371.472 43.056 365.498 43.056 357.531 L 43.056 142.47 C 43.056 134.504 46.506 128.531 53.403 124.546 L 239.653 17.016 Z M 90.576 148.268 C 84.983 151.497 82.186 156.341 82.186 162.801 L 82.186 337.2 C 82.186 343.659 84.983 348.504 90.576 351.732 L 241.609 438.932 C 247.204 442.16 252.797 442.16 258.392 438.932 L 409.425 351.732 C 415.018 348.504 417.815 343.659 417.815 337.2 L 417.815 162.801 C 417.815 156.341 415.018 151.497 409.425 148.268 L 258.392 61.069 C 252.797 57.84 247.204 57.84 241.609 61.069 L 90.576 148.268 Z" style="stroke-width: 5px; fill: rgb(217, 243, 255); stroke: rgb(126, 160, 175);"/><path d="M 250 125.089 L 298.538 185.325 L 370.824 212.873 L 328.536 277.649 L 324.673 354.91 L 250 334.708 L 175.327 354.91 L 171.464 277.649 L 129.176 212.873 L 201.462 185.325 Z" bx:shape="star 250 252.131 127.042 127.042 0.65 5 1@632bc291" style="fill: rgb(217, 243, 255); stroke: rgb(126, 160, 175); stroke-width: 5px; stroke-linejoin: round;"/></svg>